<?xml version="1.0" standalone="no"?>
<!DOCTYPE svg PUBLIC "-//W3C//DTD SVG 1.1//EN" "http://www.w3.org/Graphics/SVG/1.1/DTD/svg11.dtd" >
<svg xmlns="http://www.w3.org/2000/svg">
<metadata></metadata>
<defs>
<font id="primeregular" horiz-adv-x="825" >
<font-face units-per-em="2048" ascent="1536" descent="-512" />
<missing-glyph horiz-adv-x="776" />
<glyph horiz-adv-x="2048" />
<glyph horiz-adv-x="2048" />
<glyph unicode="&#xd;" horiz-adv-x="2048" />
<glyph unicode=" "  horiz-adv-x="776" />
<glyph unicode="&#x09;" horiz-adv-x="776" />
<glyph unicode="&#xa0;" horiz-adv-x="776" />
<glyph unicode="!" horiz-adv-x="509" d="M180 346q-11 0 -18.5 7.5t-7.5 19.5v1163h165q11 0 19 -8t8 -19v-1163h-166zM182 0h164v164q0 11 -8.5 20t-20.5 9h-163v-164q0 -12 8 -20.5t20 -8.5z" />
<glyph unicode="&#x22;" horiz-adv-x="645" d="M233 1536q12 0 20.5 -8.5t8.5 -20.5v-229l-170 -68v312v14h141zM524 1548q12 0 20.5 -8t8.5 -20v-230l-170 -67v311v14h141z" />
<glyph unicode="#" horiz-adv-x="1400" d="M1135 1147h196l-31 -141q-3 -12 -13.5 -21.5t-20.5 -9.5h-170l-99 -424h197l-35 -148q-3 -11 -14 -19.5t-21 -8.5h-172l-82 -348q-3 -12 -12 -21.5t-18 -9.5h-166l90 379h-322l-82 -348q-3 -13 -11.5 -22t-18.5 -9h-166l90 379h-221l37 147q1 12 11 20.5t21 8.5h195 l100 424h-221l31 141q3 12 13.5 21.5t19.5 9.5h194l90 371q3 12 12.5 20t20.5 8h164l-96 -399h319l90 371q7 28 35 28h162zM807 551l98 424h-317l-99 -424h318z" />
<glyph unicode="$" horiz-adv-x="1327" d="M750 -193h-136q-26 0 -26 27v166h-506v150q0 12 8 19t19 7h479v533l-365 120q-46 15 -79 61t-33 95v205q0 145 101.5 246.5t246.5 101.5h129v201h135q27 0 27 -27v-174h413v-149q0 -11 -7 -19t-19 -8h-387v-531l370 -120q46 -15 79.5 -62t33.5 -96v-203 q0 -144 -102.5 -247t-245.5 -103h-135v-193zM750 176h135q64 0 109.5 45.5t45.5 110.5v186q0 15 -10.5 30t-25.5 19l-254 84v-475zM303 1206v-184q0 -17 11 -31.5t26 -19.5l248 -82v473h-129q-65 0 -110.5 -46t-45.5 -110z" />
<glyph unicode="%" horiz-adv-x="1226" d="M924 1538h170l-766 -1513q-5 -10 -16.5 -17.5t-22.5 -7.5h-170l766 1513q5 9 17 17t22 8zM291 883h-86q-85 0 -145 59.5t-60 144.5v240q0 85 60 145t145 60h86q85 0 145 -60t60 -145v-240q0 -85 -60 -144.5t-145 -59.5zM178 1075q0 -10 8 -18t19 -8h86q12 0 20 7.5 t8 18.5v264q0 11 -8 19t-20 8h-86q-11 0 -19 -8t-8 -19v-264zM1022 651q85 0 145 -59.5t60 -145.5v-237q0 -85 -60 -145t-145 -60h-86q-85 0 -145 60t-60 145v237q0 86 60 145.5t145 59.5h86zM1049 197v264q0 11 -7.5 18.5t-19.5 7.5h-86q-11 0 -19 -8t-8 -18v-264 q0 -11 8.5 -19t18.5 -8h86q12 0 19.5 8t7.5 19z" />
<glyph unicode="&#x26;" horiz-adv-x="1458" d="M1452 49v-49h-176q-22 0 -45 18l-203 193q-178 -131 -252 -186q-35 -23 -74 -23h-327q-116 0 -198.5 82t-82.5 197v323q0 45 24 92t62 74l146 107l-99 94q-31 29 -51 75t-20 89v125q0 113 82.5 192.5t199.5 79.5h525v-379h-150q-11 0 -19 7.5t-8 19.5v180h-348 q-39 0 -66.5 -26t-27.5 -62l-2 -150q0 -16 12 -28l678 -645l96 77q14 10 31.5 9t30.5 -11l102 -98l-127 -102zM711 190l192 140l-440 418l-172 -130q-10 -3 -10 -16v-334q0 -38 28 -65t66 -27h284q27 0 52 14z" />
<glyph unicode="'" horiz-adv-x="331" d="M233 1536q12 0 20.5 -8.5t8.5 -20.5v-229l-170 -68v312v14h141z" />
<glyph unicode="(" horiz-adv-x="575" d="M451 1376q-56 -9 -92.5 -51.5t-36.5 -99.5v-1084q0 -57 36.5 -100.5t92.5 -52.5q11 -2 18.5 -10.5t7.5 -18.5v-149q-144 0 -246 102.5t-102 245.5v1048q0 145 101.5 246.5t246.5 101.5v-147q0 -24 -26 -31z" />
<glyph unicode=")" horiz-adv-x="563" d="M98 1376q-26 7 -26 31v147q145 0 246.5 -101.5t101.5 -246.5v-1048q0 -143 -102 -245.5t-246 -102.5v149q0 10 7.5 18.5t18.5 10.5q56 9 92.5 52.5t36.5 100.5v1084q0 57 -36.5 99.5t-92.5 51.5z" />
<glyph unicode="*" horiz-adv-x="641" d="M532 1206q13 -10 13 -20q-6 -9 -10 -19l-46 -65l-127 96l9 -131q0 -12 -7 -19.5t-18 -7.5h-84l4 156l-102 -78q-8 -4 -18.5 -3t-16.5 7l-49 70l156 98l-134 86l2 -2q-14 6 -14 31q2 2 2 4l51 70l125 -95l-6 129q0 12 7.5 20.5t19.5 8.5h82l-9 -158l107 80q11 7 21.5 5 t15.5 -13v2l49 -67l-154 -99z" />
<glyph unicode="+" horiz-adv-x="651" d="M397 844h201v-127q0 -11 -8 -19t-19 -8h-174v-211h-129q-10 0 -18 8t-8 19v184h-201v127q0 11 8.5 19t18.5 8h174v213h129q10 0 18 -8t8 -19v-186z" />
<glyph unicode="," horiz-adv-x="425" d="M274 193q12 0 20.5 -9.5t8.5 -21.5v-254l-180 -107v375v17h151z" />
<glyph unicode="-" d="M700 707q0 -11 -8 -19t-18 -8h-551v149q0 11 8.5 19t18.5 8h550v-149z" />
<glyph unicode="." horiz-adv-x="444" d="M152 0q-12 0 -20.5 9t-8.5 20v164h162q12 0 20 -9.5t8 -21.5v-162h-161z" />
<glyph unicode="/" horiz-adv-x="1046" d="M805 1538h170l-766 -1513q-5 -9 -17 -17t-22 -8h-170l766 1513q5 10 16.5 17.5t22.5 7.5z" />
<glyph unicode="0" horiz-adv-x="1298" d="M815 1548q74 0 136.5 -19t110.5 -56.5t75.5 -99t27.5 -142.5v-907q0 -143 -101.5 -237.5t-248.5 -94.5h-342q-149 0 -248.5 83t-99.5 224v920q0 143 100.5 236t247.5 93h342zM313 1217v-893v-7l551 1047q-28 8 -45 8h-350q-65 0 -110.5 -45.5t-45.5 -109.5zM975 324v893 v14l-557 -1055q32 -8 51 -8h350q65 0 110.5 46t45.5 110z" />
<glyph unicode="1" horiz-adv-x="544" d="M373 1538q11 0 18.5 -7.5t7.5 -19.5v-1511h-163q-10 0 -18.5 8t-8.5 19v1337h-150q-11 0 -18.5 7.5t-7.5 19.5v147h340z" />
<glyph unicode="2" horiz-adv-x="1304" d="M291 326v-150h844q11 0 18.5 -8t7.5 -18v-150h-1030q-11 0 -19 8t-8 19v303q0 49 30 101.5t73 78.5l708 506q10 6 17.5 18t7.5 23v149q0 160 -158 160h-610q-11 0 -19 7.5t-8 19.5v147h637q152 0 251.5 -85t99.5 -241v-153q0 -117 -103 -180l-717 -516q-9 -4 -15.5 -16 t-6.5 -23z" />
<glyph unicode="3" horiz-adv-x="1153" d="M1010 1233v-301q4 -49 -19.5 -87.5t-62.5 -47.5q34 -1 58 -30t24 -67v-374q0 -150 -95.5 -238t-244.5 -88h-602v147q0 11 8 19t18 8h576q66 0 110.5 40.5t44.5 104.5v369q0 11 -8 19t-18 8h-652q-26 0 -26 20v152h678q11 0 18.5 7.5t7.5 18.5v318q0 63 -44 100t-111 37 h-568q-11 0 -18.5 7.5t-7.5 19.5v145h594q149 0 244.5 -83t95.5 -224z" />
<glyph unicode="4" horiz-adv-x="1196" d="M1143 463v-144h-160v-319h-158q-10 0 -18 8t-8 19v292h-635q-48 0 -73 30t-25 81v109q0 38 24 69l709 932h157l2 -2q10 0 17.5 -8t7.5 -19v-1022h133q11 0 19 -7t8 -19zM287 489h10h502v777l-531 -709q-10 -10 -10 -27v-2q0 -39 29 -39z" />
<glyph unicode="5" horiz-adv-x="1236" d="M997 1362h-692v-373q0 -12 8 -19t19 -7h416q148 0 248 -89.5t100 -242.5v-299q0 -150 -100.5 -241t-247.5 -91h-617v150q0 10 8 18t19 8h590q64 0 109.5 45.5t45.5 110.5v297q0 65 -45.5 111t-109.5 46h-500q-50 0 -84.5 35t-34.5 84v606q0 12 8 19.5t19 7.5h868v-149 q0 -11 -8 -19t-19 -8z" />
<glyph unicode="6" horiz-adv-x="1314" d="M834 915q146 0 240.5 -89t94.5 -232v-260q0 -145 -95 -239.5t-240 -94.5h-345q-147 0 -245.5 90.5t-98.5 233.5v866q0 145 100 247.5t244 102.5h598v-149q0 -12 -7.5 -19.5t-18.5 -7.5h-572q-64 0 -109.5 -46.5t-45.5 -111.5v-291v-43q25 43 76 43h424zM989 332v252 q0 64 -45.5 109.5t-109.5 45.5h-474q-10 0 -18 -7.5t-8 -18.5v-381q0 -65 45.5 -110.5t109.5 -45.5h345q64 0 109.5 45.5t45.5 110.5z" />
<glyph unicode="7" horiz-adv-x="1126" d="M98 1366q-11 0 -18.5 7.5t-7.5 19.5v145h905q49 0 73.5 -33t10.5 -80l-658 -1400q-13 -25 -34 -25h-172l616 1339q3 10 -3 18.5t-17 8.5h-695z" />
<glyph unicode="8" horiz-adv-x="1329" d="M1184 1055q0 -154 -121 -262q57 -48 89 -116t32 -145v-202q0 -144 -98.5 -241t-243.5 -97h-371q-145 0 -243.5 97t-98.5 241v202q0 77 32 145t89 116q-121 108 -121 262v143q0 146 99 248t243 102h371q145 0 243.5 -99.5t98.5 -244.5v-149zM315 1217v-179 q0 -64 45.5 -109.5t110.5 -45.5h371q64 0 109.5 45.5t45.5 109.5v179q0 65 -45.5 114t-109.5 49h-371q-64 0 -110 -49t-46 -114zM997 324v225q0 65 -45.5 110.5t-109.5 45.5h-371q-65 0 -110.5 -45.5t-45.5 -110.5v-225q0 -65 46 -111.5t110 -46.5h371q64 0 109.5 46.5 t45.5 111.5z" />
<glyph unicode="9" horiz-adv-x="1323" d="M473 625q-146 0 -241 89t-95 232v260q0 145 95.5 239.5t240.5 94.5h344q147 0 245.5 -90t98.5 -233v-867q0 -145 -100 -247.5t-244 -102.5h-639v150q0 12 8 19t19 7h612q64 0 110 46.5t46 111.5v291v43q-25 -43 -76 -43h-424zM317 1208v-252q0 -64 45.5 -109.5 t110.5 -45.5h473q11 0 19 8t8 18v381q0 64 -45.5 110t-110.5 46h-344q-65 0 -110.5 -46t-45.5 -110z" />
<glyph unicode=":" horiz-adv-x="378" d="M125 0q-12 0 -20.5 9t-8.5 20v164h162q12 0 20.5 -9.5t8.5 -21.5v-162h-162zM125 688q-12 0 -20.5 8.5t-8.5 20.5v162h162q12 0 20.5 -8.5t8.5 -20.5v-162h-162z" />
<glyph unicode=";" horiz-adv-x="411" d="M135 688q-12 0 -20.5 8.5t-8.5 20.5v162h162q12 0 20.5 -8.5t8.5 -20.5v-162h-162zM262 193q12 0 20.5 -9.5t8.5 -21.5v-273l-178 -108v395v17h149z" />
<glyph unicode="&#x3c;" horiz-adv-x="700" d="M612 1118v-127q0 -29 -30 -51l-367 -195l367 -192q30 -23 30 -53v-129l-532 286q-8 6 -14.5 19.5t-6.5 23.5v86q0 10 6.5 23.5t14.5 19.5z" />
<glyph unicode="=" horiz-adv-x="851" d="M86 557q0 23 25 23h606v-127q0 -23 -25 -23h-606v127zM111 899h606v-129q0 -25 -25 -25h-606v129q0 25 25 25z" />
<glyph unicode="&#x3e;" horiz-adv-x="774" d="M113 1118l532 -289q8 -6 14.5 -19.5t6.5 -23.5v-86q0 -10 -6.5 -23.5t-14.5 -19.5l-532 -286v129q0 30 30 53l367 192l-367 195q-30 22 -30 51v127z" />
<glyph unicode="?" horiz-adv-x="1130" d="M463 823l366 148q15 4 26 19t11 30v197q0 62 -49 103.5t-115 41.5h-589q-11 0 -19 7.5t-8 19.5v147h616q148 0 248.5 -81.5t100.5 -221.5v-248q0 -49 -33.5 -95t-79.5 -61l-358 -147q-15 -5 -26 -19.5t-11 -31.5v-289h-166q-11 0 -19 8t-8 19v299q0 50 33 95t80 60z M379 0q-12 0 -20.5 8.5t-8.5 20.5v164h162q12 0 21.5 -9t9.5 -20v-164h-164z" />
<glyph unicode="@" horiz-adv-x="1540" d="M926 690h2q-2 2 0 4v41q0 34 -25 58t-59 24h-348q-11 0 -20 10t-9 23v129h377q104 0 178 -73t74 -177v-446h164v723q0 47 -34 80.5t-81 33.5h-758q-48 0 -82.5 -33.5t-34.5 -80.5v-908q0 -47 34.5 -80.5t82.5 -33.5h774q22 0 37.5 -15t15.5 -37v-88h-798 q-122 0 -205.5 72.5t-83.5 189.5v865q0 120 85 204.5t204 84.5h698q120 0 204.5 -84.5t84.5 -204.5v-834h-756q-104 0 -178 73t-74 177v53q0 104 74 177t178 73h279zM928 283v252q-14 -7 -31 -7h-250q-34 0 -59 -24t-25 -58v-81q0 -34 25 -58t59 -24h281z" />
<glyph unicode="A" horiz-adv-x="1529" d="M956 1524l537 -1524h-168q-13 0 -23.5 8t-13.5 19l-137 395h-782l-138 -395q-3 -11 -13.5 -19t-22.5 -8h-168l499 1423q19 52 63 83.5t99 31.5h244q17 0 24 -14zM430 598h660l-267 764h-100q-27 0 -37 -27z" />
<glyph unicode="B" horiz-adv-x="1355" d="M248 0q-50 0 -84.5 35t-34.5 84v1304q0 47 34 81t81 34h32h623q145 0 246.5 -101.5t101.5 -246.5v-156q0 -78 -54.5 -157t-133.5 -95q80 -21 134 -98t54 -154v-180q0 -145 -101.5 -247.5t-246.5 -102.5h-651zM1055 334v205q0 64 -45.5 109.5t-110.5 45.5h-577v-479 q0 -16 10.5 -27.5t27.5 -11.5h539q64 0 110 46.5t46 111.5zM322 1323v-453h577q65 0 110.5 46t45.5 110v180q0 64 -45.5 110t-110.5 46h-539q-17 0 -27.5 -11t-10.5 -28z" />
<glyph unicode="C" horiz-adv-x="1247" d="M123 348v842q0 145 101.5 246.5t246.5 101.5h676v-149q0 -11 -8.5 -19t-18.5 -8h-649q-65 0 -110.5 -46t-45.5 -110v-874q0 -64 45.5 -110t110.5 -46h649q11 0 19 -8t8 -18v-150h-676q-144 0 -246 102.5t-102 245.5z" />
<glyph unicode="D" horiz-adv-x="1372" d="M246 0q-50 0 -84.5 35t-34.5 84v1300q0 49 34.5 84t84.5 35h657q145 0 246.5 -101.5t101.5 -246.5v-842q0 -143 -102 -245.5t-246 -102.5h-657zM358 176h545q65 0 110.5 46t45.5 110v874q0 64 -45.5 110t-110.5 46h-545q-17 0 -28 -11t-11 -28v-1108q0 -16 11 -27.5 t28 -11.5z" />
<glyph unicode="E" horiz-adv-x="1226" d="M471 1362q-65 0 -110.5 -46t-45.5 -110v-389q33 41 101 41h674v-149q0 -11 -8 -19t-19 -8h-748v-350q0 -64 45.5 -110t110.5 -46h664q11 0 18.5 -8t7.5 -18v-150h-690q-145 0 -246.5 101.5t-101.5 246.5v842q0 145 101.5 246.5t246.5 101.5h690v-149q0 -11 -8 -19t-18 -8 h-664z" />
<glyph unicode="F" horiz-adv-x="1212" d="M473 1538h690v-149q0 -11 -8 -19t-18 -8h-664q-65 0 -110.5 -46t-45.5 -110v-393q33 45 103 45h696v-149q0 -11 -8 -19t-18 -8h-773v-655q0 -11 -8 -19t-18 -8h-166v1190q0 145 101.5 246.5t246.5 101.5z" />
<glyph unicode="G" horiz-adv-x="1363" d="M473 -8q-145 0 -246.5 101.5t-101.5 246.5v858q0 145 101.5 246.5t246.5 101.5h703v-149q0 -11 -8.5 -19t-20.5 -8h-674q-65 0 -110.5 -46t-45.5 -110v-890q0 -64 45.5 -110t110.5 -46h424q66 0 120 46.5t54 109.5v370h-373q-10 0 -18 8t-8 19v149h547q11 0 18.5 -8 t7.5 -18v-525q0 -157 -98 -242t-250 -85h-424z" />
<glyph unicode="H" horiz-adv-x="1368" d="M1077 1538h166v-1538h-166q-10 0 -18 8t-8 19v655h-736v-655q0 -11 -8 -19t-18 -8h-166v1538h166q10 0 18 -8t8 -19v-653h736v653q0 11 8 19t18 8z" />
<glyph unicode="I" horiz-adv-x="514" d="M193 0q-11 0 -19 8t-8 19v1511h166q10 0 18 -8t8 -19v-1511h-165z" />
<glyph unicode="J" horiz-adv-x="1013" d="M76 0q-10 0 -18.5 8t-8.5 19v147h494q63 0 108 46t45 110v1032h-217q-10 0 -18 8t-8 19v147h436v-1190q0 -142 -101.5 -244t-244.5 -102h-467z" />
<glyph unicode="K" horiz-adv-x="1370" d="M1016 723l321 -723h-184q-10 0 -22 8t-17 17l-291 657h-467q-15 0 -27 -12t-12 -27v-616q0 -11 -8 -19t-18 -8h-166v1511q0 11 8.5 19t18.5 8h165v-723q34 43 103 43h432q64 0 110 46t46 110v497q0 11 8 19t20 8h166v-508q0 -99 -51 -181.5t-135 -125.5z" />
<glyph unicode="L" horiz-adv-x="1179" d="M473 0q-145 0 -247.5 104t-102.5 250v1157q0 11 8.5 19t18.5 8h165v-1202q0 -66 46.5 -113t111.5 -47h639q11 0 19 -8t8 -18v-150h-666z" />
<glyph unicode="M" horiz-adv-x="1722" d="M293 1536q15 0 31.5 -10t23.5 -23l510 -934l512 934q7 13 23.5 23t31.5 10h144q11 0 18.5 -7.5t7.5 -19.5v-1507h-165q-10 0 -18.5 8t-8.5 19v1196l-428 -813q-14 -25 -41 -25h-150q-27 0 -41 25l-428 813v-1196q0 -11 -8 -19t-18 -8h-166v1507q0 12 8 19.5t19 7.5h143z " />
<glyph unicode="N" horiz-adv-x="1447" d="M975 645l186 -366q-9 71 -14 142.5t-9.5 158.5t-7.5 133v798q0 11 8 19t19 8h166v-1538h-178q-10 0 -22 8t-17 17l-700 1304q-7 13 -24 23t-32 10h-35v-1335q0 -11 -8 -19t-18 -8h-166v1511q0 11 8.5 19t18.5 8h233q49 0 100 -30.5t74 -73.5z" />
<glyph unicode="O" horiz-adv-x="1402" d="M932 -8h-463q-145 0 -246.5 101.5t-101.5 246.5v858q0 145 101.5 246.5t246.5 101.5h463q143 0 245.5 -102t102.5 -246v-858q0 -144 -102.5 -246t-245.5 -102zM469 1370q-65 0 -110.5 -46t-45.5 -110v-890q0 -64 45.5 -110t110.5 -46h463q64 0 109.5 45.5t45.5 110.5v890 q0 65 -45.5 110.5t-109.5 45.5h-463z" />
<glyph unicode="P" horiz-adv-x="1292" d="M883 1538q144 0 246 -102.5t102 -245.5v-203q0 -143 -102 -245.5t-246 -102.5h-449q-47 0 -81.5 24t-37.5 58v-694q0 -11 -8 -19t-18 -8h-166v1419q0 49 34.5 84t84.5 35h641zM1038 971v235q0 65 -45.5 110.5t-109.5 45.5h-529q-17 0 -28 -11.5t-11 -27.5v-469 q0 -15 12 -27t27 -12h2h527q64 0 109.5 45.5t45.5 110.5z" />
<glyph unicode="Q" horiz-adv-x="1409" d="M936 1546q143 0 245.5 -102t102.5 -246v-858q0 -117 -72 -210t-182 -124l72 -168h-144q-27 0 -38 25l-56 129h-391q-145 0 -246.5 101.5t-101.5 246.5v858q0 145 101.5 246.5t246.5 101.5h463zM1092 324v890q0 64 -46 110t-110 46h-463q-65 0 -110.5 -46t-45.5 -110v-890 q0 -64 45.5 -110t110.5 -46h313l-81 186h143q29 0 39 -24l71 -160q56 8 95 52t39 102z" />
<glyph unicode="R" horiz-adv-x="1323" d="M319 737h-4v-710q0 -11 -8 -19t-18 -8h-166v1419q0 49 34.5 84t84.5 35h643q150 0 249 -89t99 -241v-198q0 -127 -78 -206.5t-201 -111.5l328 -692h-178q-10 0 -21 8t-16 17l-311 657h-262h-60q-95 0 -115 55zM354 858h531q64 0 109.5 45.5t45.5 110.5v192 q0 65 -45.5 110.5t-109.5 45.5h-531q-17 0 -28 -11.5t-11 -27.5v-426q0 -17 11.5 -28t27.5 -11z" />
<glyph unicode="S" horiz-adv-x="1302" d="M113 176h757q64 0 108 45.5t44 110.5v186q0 15 -11 30t-26 19l-786 262q-46 15 -79.5 61t-33.5 95v244q0 141 99.5 225t248.5 84h729v-149q0 -11 -7 -19t-19 -8h-703q-66 0 -112 -39t-46 -102v-199q0 -17 11 -31.5t26 -19.5l787 -260q45 -15 75.5 -61.5t30.5 -96.5v-219 q0 -144 -96.5 -239t-239.5 -95h-784v150q0 12 8 19t19 7z" />
<glyph unicode="T" horiz-adv-x="1187" d="M63 1538h1090v-149q0 -11 -8.5 -19t-18.5 -8h-438v-1335q0 -11 -7 -19t-19 -8h-166v1362h-459v149q0 11 8 19t18 8z" />
<glyph unicode="U" horiz-adv-x="1411" d="M473 -8q-145 0 -246.5 101.5t-101.5 246.5v1198h166q10 0 18 -8t8 -19v-1187q0 -64 45.5 -110t110.5 -46h463q64 0 110 46t46 110v1187q0 11 8 19t18 8h166v-1198q0 -144 -102.5 -246t-245.5 -102h-463z" />
<glyph unicode="V" horiz-adv-x="1357" d="M688 260l434 1253q5 10 15 17.5t20 7.5h178l-532 -1511q-3 -10 -13.5 -18.5t-21.5 -8.5h-162q-11 0 -21.5 8.5t-13.5 18.5l-532 1511h178q10 0 21 -8t14 -17z" />
<glyph unicode="W" horiz-adv-x="1935" d="M1647 1538h165v-1419q0 -50 -34.5 -84.5t-83.5 -34.5h-1219q-148 0 -249 98.5t-101 241.5v1198h166q10 0 18 -8t8 -19v-1187q0 -63 45.5 -105.5t112.5 -42.5h438q-41 38 -41 98v1264h166q10 0 18.5 -8t8.5 -19v-1296q0 -16 11 -27.5t28 -11.5h477q15 0 27 12t12 27v1296 q0 11 8 19t19 8z" />
<glyph unicode="X" horiz-adv-x="1304" d="M874 727q38 -18 60 -57l321 -670h-186q-11 0 -23 7.5t-16 17.5l-264 555q-9 16 -25 31.5t-30 15.5h-76q-16 0 -32 -15.5t-23 -31.5l-265 -555q-14 -25 -39 -25h-188l320 664q22 41 63 63q-40 18 -61 59l-363 752h184q28 0 39 -25l310 -636q8 -19 23.5 -37.5t31.5 -18.5 h76q24 0 55 56l307 636q4 10 15 17.5t22 7.5h184l-364 -764q-23 -33 -56 -47z" />
<glyph unicode="Y" horiz-adv-x="1394" d="M1171 1538h181l-314 -797q-19 -51 -57 -83.5t-94 -32.5h-92v-598q0 -11 -8.5 -19t-18.5 -8h-168v625l-82 2q-62 0 -102.5 32t-59.5 82l-313 797h180q10 0 21 -8t16 -17l256 -669q6 -15 22 -26t31 -11h256q15 0 31.5 11t22.5 26l256 669q13 25 36 25z" />
<glyph unicode="Z" horiz-adv-x="1398" d="M1092 1362h-951v149q0 11 8.5 19t18.5 8h1116q10 0 18.5 -8t8.5 -19v-122q0 -45 -29 -74l-971 -1139h1000v-149q0 -11 -8.5 -19t-18.5 -8h-1180q-10 0 -18 8t-8 19v102q0 41 26 74z" />
<glyph unicode="[" horiz-adv-x="532" d="M94 -154v1670q0 15 11 25.5t28 10.5h320v-151q0 -12 -7.5 -19.5t-19.5 -7.5h-139v-1386h139q12 0 19.5 -7.5t7.5 -19.5v-154h-320q-17 0 -28 11.5t-11 27.5z" />
<glyph unicode="\" horiz-adv-x="987" d="M170 1538q10 0 22 -8t17 -17l766 -1513h-170q-11 0 -22.5 7.5t-16.5 17.5l-766 1513h170z" />
<glyph unicode="]" horiz-adv-x="610" d="M451 -154q0 -16 -11 -27.5t-28 -11.5h-320v154q0 12 7.5 19.5t19.5 7.5h139v1386h-139q-12 0 -19.5 7.5t-7.5 19.5v151h320q17 0 28 -10.5t11 -25.5v-1670z" />
<glyph unicode="^" horiz-adv-x="808" d="M14 1026l277 490q18 22 43 22h108q28 0 43 -22l279 -490h-154q-15 0 -32.5 9.5t-26.5 21.5l-162 305l-162 -305q-9 -12 -27.5 -21.5t-33.5 -9.5h-152z" />
<glyph unicode="_" horiz-adv-x="1171" d="M1067 -141q0 -11 -7.5 -19t-19.5 -8h-917v150q0 10 8 18t19 8h917v-149z" />
<glyph unicode="`" horiz-adv-x="450" d="M211 1309q-9 0 -20 6.5t-15 15.5l-104 209h164q24 0 34 -24l88 -207h-147z" />
<glyph unicode="a" horiz-adv-x="1048" d="M629 1024q130 0 214.5 -76t84.5 -211v-671q0 -28 -19 -47t-47 -19h-22h-90h-367q-125 0 -212 87t-87 212v63q0 125 87.5 212.5t211.5 87.5h346q9 0 16 6.5t7 15.5v51q0 52 -32.5 86.5t-90.5 34.5h-408q-9 0 -15.5 7t-6.5 16v145h430zM262 295q0 -51 35 -86t86 -35h348 q9 0 15 7t6 16v325q-15 -27 -54 -30h-315q-51 0 -86 -35t-35 -86v-76z" />
<glyph unicode="b" horiz-adv-x="1081" d="M676 1024q123 0 211 -87.5t88 -211.5v-426q0 -124 -88 -211.5t-211 -87.5h-488q-28 0 -46.5 19t-18.5 47v1470h156q9 0 15.5 -7t6.5 -16v-555q20 28 57 47t82 19h236zM797 291v442q0 51 -35 86t-86 35h-277q-40 -5 -67.5 -34t-30.5 -70v-560q0 -9 7 -14.5t16 -5.5h352 q51 0 86 35t35 86z" />
<glyph unicode="c" horiz-adv-x="899" d="M406 854q-51 0 -86 -36t-35 -87v-440q0 -51 35 -86t86 -35h362q9 0 16 -7t7 -16v-147h-385q-123 0 -211.5 87.5t-88.5 211.5v424q0 124 88.5 211.5t211.5 87.5h385v-148q0 -9 -7 -14.5t-16 -5.5h-362z" />
<glyph unicode="d" horiz-adv-x="1083" d="M106 725q0 125 85.5 212t209.5 87h238q47 0 84 -19t57 -47v555q0 9 7 16t16 7h155v-1470q0 -28 -18.5 -47t-46.5 -19h-487q-125 0 -212.5 87.5t-87.5 211.5v426zM285 733v-442q0 -51 35 -86t86 -35h352q9 0 15.5 5.5t6.5 14.5v560q-3 41 -31 70t-67 34h-276 q-51 0 -86 -35t-35 -86z" />
<glyph unicode="e" horiz-adv-x="1122" d="M422 0q-124 0 -211.5 87t-87.5 212v434q0 138 84.5 214.5t214.5 76.5h274q130 0 214.5 -76.5t84.5 -214.5v-235q0 -21 -2.5 -33t-15 -21.5t-35.5 -9.5h-561q-52 0 -80 39v-182q0 -51 35 -86t86 -35h508q9 0 15.5 -7t6.5 -16v-147h-530zM702 856h-280q-54 0 -87.5 -31 t-33.5 -90v-110q0 -19 21 -23h477q9 0 15.5 7t6.5 16v110q0 121 -119 121z" />
<glyph unicode="f" horiz-adv-x="655" d="M422 1542h207v-147q0 -9 -7 -16t-16 -7h-184q-51 0 -86 -35t-35 -86v-264q17 31 55 31h201v-148q0 -9 -6.5 -14.5t-15.5 -5.5h-234v-827q0 -9 -6.5 -16t-15.5 -7h-156v1243q0 125 87.5 212t211.5 87z" />
<glyph unicode="g" horiz-adv-x="1085" d="M786 -209v291q-17 -31 -56 -56.5t-85 -25.5h-246q-137 0 -211.5 85t-74.5 214v436q0 128 78.5 209.5t220.5 81.5h487q27 0 46.5 -19t19.5 -46v-1162q0 -124 -88 -211.5t-211 -87.5h-488v148q0 9 7 15.5t16 6.5h465q50 0 85 35t35 86zM291 735v-444q0 -121 112 -121h283 q40 6 68.5 35.5t31.5 68.5v560q0 9 -6.5 15.5t-15.5 6.5h-352q-121 0 -121 -121z" />
<glyph unicode="h" horiz-adv-x="1103" d="M125 23v1513h156q9 0 15.5 -7t6.5 -16v-555q20 28 57 47t82 19h260q128 0 206.5 -73.5t78.5 -213.5v-737h-156q-9 0 -15.5 7t-6.5 16v710q0 51 -35 86t-86 35h-287q-40 -5 -67.5 -34t-30.5 -70v-750h-156q-9 0 -15.5 7t-6.5 16z" />
<glyph unicode="i" horiz-adv-x="442" d="M285 1024q9 0 15.5 -5.5t6.5 -14.5v-1004h-155q-9 0 -16 7t-7 16v1001h156zM285 1483q9 0 15.5 -7t6.5 -16v-168h-155q-9 0 -16 7t-7 16v168h156z" />
<glyph unicode="j" horiz-adv-x="440" d="M-66 -352v-148h78q123 0 211 87.5t88 211.5v201v305v699q0 9 -6.5 14.5t-15.5 5.5h-156v-719v-282v-232q0 -51 -35.5 -86t-85.5 -35h-55q-9 0 -16 -6.5t-7 -15.5zM289 1462q9 0 15.5 -6.5t6.5 -15.5v-164h-155q-9 0 -16 6.5t-7 15.5v164h156z" />
<glyph unicode="k" horiz-adv-x="1011" d="M752 461l229 -461h-176q-23 0 -33 20l-201 404h-247q-9 0 -16 -7t-7 -16v-378q0 -9 -6.5 -16t-15.5 -7h-156v1520h156q9 0 15.5 -7t6.5 -16v-940q17 35 55 35h252q51 0 86 36t35 87v286q0 9 7 16t16 7h155v-301q0 -84 -42 -153.5t-113 -108.5z" />
<glyph unicode="l" horiz-adv-x="434" d="M279 1536q9 0 15.5 -7t6.5 -16v-1513h-156q-9 0 -15.5 7t-6.5 16v1513h156z" />
<glyph unicode="m" horiz-adv-x="1484" d="M1065 1024q125 0 212 -87t87 -212v-725h-156q-9 0 -15.5 7t-6.5 16v712q0 50 -35 85.5t-86 35.5h-266q37 -22 37 -57v-799h-156q-9 0 -16 7t-7 16v811q0 9 -6.5 15.5t-15.5 6.5h-309q-17 0 -21 -18v-815q0 -9 -6.5 -16t-15.5 -7h-156v891q0 55 38.5 94t94.5 39h805z" />
<glyph unicode="n" horiz-adv-x="1122" d="M694 1024q124 0 211.5 -87t87.5 -212v-725h-155q-9 0 -16 7t-7 16v712q0 50 -35 85.5t-86 35.5h-370q-9 0 -16 -6.5t-7 -15.5v-811q0 -9 -6.5 -16t-15.5 -7h-156v891q0 55 38.5 94t94.5 39h438z" />
<glyph unicode="o" horiz-adv-x="1114" d="M688 -14h-270q-124 0 -211.5 87t-87.5 212v454q0 123 87.5 211t211.5 88h270q124 0 212.5 -88t88.5 -211v-454q0 -124 -88 -211.5t-213 -87.5zM418 868q-51 0 -86 -35t-35 -85v-472q0 -51 35 -86.5t86 -35.5h270q51 0 87 35.5t36 86.5v472q0 50 -36 85t-87 35h-270z" />
<glyph unicode="p" horiz-adv-x="1103" d="M981 289q0 -127 -87 -208t-212 -81h-236q-44 0 -81 19.5t-58 46.5v-543q0 -9 -6.5 -16t-15.5 -7h-156v1461q0 26 19 44.5t47 18.5h487q132 0 215.5 -72t83.5 -217v-446zM803 291v444q0 121 -121 121h-352q-9 0 -16 -6.5t-7 -15.5v-560q3 -40 31 -70t68 -34h276 q50 0 85.5 35t35.5 86z" />
<glyph unicode="q" horiz-adv-x="1114" d="M125 289v446q0 145 83.5 217t215.5 72h487q28 0 47 -18.5t19 -44.5v-1461h-156q-9 0 -15.5 7t-6.5 16v543q-21 -27 -58.5 -46.5t-81.5 -19.5h-235q-125 0 -212 81t-87 208zM303 735v-444q0 -51 35.5 -86t85.5 -35h276q40 4 68 34t31 70v560q0 9 -7 15.5t-16 6.5h-352 q-121 0 -121 -121z" />
<glyph unicode="r" horiz-adv-x="741" d="M440 1024h238v-147q0 -9 -7 -16t-16 -7h-256q-40 0 -67.5 -27t-30.5 -65v-762h-156q-9 0 -15.5 7t-6.5 16v1001h156q9 0 15.5 -5.5t6.5 -14.5v-46q20 28 57 47t82 19z" />
<glyph unicode="s" horiz-adv-x="1105" d="M152 549q-25 5 -41.5 23.5t-16.5 43.5v138q0 123 77.5 196.5t203.5 73.5h561v-145q0 -9 -7 -16t-16 -7h-538q-103 0 -103 -100v-60q0 -14 19 -22l633 -150q25 -4 40 -23t15 -44v-183q0 -130 -82 -202t-211 -72h-580v145q0 9 7 16t16 7h557q53 0 90 28.5t37 77.5v97 q0 16 -18 20z" />
<glyph unicode="t" horiz-adv-x="692" d="M608 170q9 0 16 -7t7 -16v-147h-207q-123 0 -211 87.5t-88 211.5v1221h156q9 0 15.5 -7t6.5 -16v-512q16 37 59 37h218v-148q0 -9 -7 -14.5t-16 -5.5h-254v-563q0 -51 35 -86t86 -35h184z" />
<glyph unicode="u" horiz-adv-x="1120" d="M125 1026h156q9 0 15.5 -6.5t6.5 -15.5v-713q0 -51 35 -86t86 -35h270q51 0 87 35t36 86v713q0 9 7 15.5t16 6.5h155v-727q0 -124 -88 -211.5t-213 -87.5h-270q-124 0 -211.5 87t-87.5 212v727z" />
<glyph unicode="v" horiz-adv-x="1017" d="M436 16l-416 1010h175q17 0 24 -18l285 -727l284 727q7 18 27 18h174l-420 -1010q-6 -16 -24 -16h-84q-19 0 -25 16z" />
<glyph unicode="w" horiz-adv-x="1480" d="M1202 1024h156v-891q0 -55 -39 -94t-94 -39h-805q-124 0 -211.5 87t-87.5 212v725h155q9 0 16 -5.5t7 -14.5v-713q0 -51 35 -86t86 -35h266q-35 18 -35 57v797h156q9 0 15.5 -5.5t6.5 -14.5v-811q0 -9 6 -16t15 -7h309q9 0 15 7t6 16v-3v814q0 9 6.5 14.5t15.5 5.5z" />
<glyph unicode="x" horiz-adv-x="954" d="M643 512q25 -12 37 -37l233 -475h-172q-12 0 -20 12l-191 404q-6 12 -18 12h-66q-15 0 -18 -12l-192 -404q-4 -12 -21 -12h-170l236 481q15 23 32 31q-21 12 -34 35l-236 477h176q15 0 21 -12l188 -402q3 -10 18 -10h66q11 0 18 10l189 402q3 12 20 12h176l-235 -475 q-12 -25 -37 -37z" />
<glyph unicode="y" horiz-adv-x="1097" d="M793 1024h155q9 0 16 -5.5t7 -14.5v-1205q0 -124 -88 -211.5t-211 -87.5h-504v148q0 9 6.5 15.5t15.5 6.5h482q50 0 85.5 36t35.5 85v275q-54 -66 -142 -66h-231q-124 0 -211.5 88t-87.5 211v725h155q9 0 16 -5.5t7 -14.5v-713q0 -50 35 -85.5t86 -35.5h272q40 6 69 35.5 t32 68.5v750z" />
<glyph unicode="z" horiz-adv-x="944" d="M881 166v-143q0 -9 -7 -16t-16 -7h-774q-9 0 -16 7t-7 16v79q0 58 37 101l555 633q4 4 4 10q0 14 -14 14h-528v144q0 9 6.5 14.5t15.5 5.5h707q9 0 15.5 -5.5t6.5 -14.5v-115q0 -58 -37 -101l-526 -598q-10 -10 0 -20q2 -4 8 -4h570z" />
<glyph unicode="{" horiz-adv-x="690" d="M463 825q0 -57 -37.5 -99t-93.5 -48q-6 -2 0 -2q56 -6 93.5 -48.5t37.5 -99.5v-415q0 -58 37 -101q39 -42 92 -51q26 -9 26 -31v-147q-149 0 -248.5 86t-99.5 244v342q0 61 -43 104t-104 43v148q61 0 104 43.5t43 105.5v332q3 140 97 236t251 96v-148q0 -25 -26 -31 q-57 -12 -92 -53q-37 -40 -37 -98v-408z" />
<glyph unicode="|" horiz-adv-x="485" d="M182 -193q-26 0 -26 27v1757h166q26 0 26 -26v-1758h-166z" />
<glyph unicode="}" horiz-adv-x="675" d="M252 825v408q0 58 -37 98q-35 41 -92 53q-27 6 -27 31v148q157 0 251 -96t97 -236v-332q0 -62 43.5 -105.5t104.5 -43.5v-148q-62 0 -105 -43t-43 -104v-342q0 -158 -99.5 -244t-248.5 -86v147q0 22 27 31q53 9 92 51q37 43 37 101v415q0 57 37.5 99.5t93.5 48.5q6 0 0 2 q-56 6 -93.5 48t-37.5 99z" />
<glyph unicode="~" horiz-adv-x="1103" d="M328 879l452 -123q11 -3 20.5 2.5t12.5 15.5l8 29q3 9 13 15t20 3l160 -43l-37 -139q-13 -47 -56.5 -71.5t-89.5 -12.5l-454 123q-9 3 -19 -3.5t-12 -15.5l-12 -41q-3 -10 -12.5 -15.5t-20.5 -2.5l-160 43l41 152q12 46 55.5 71t90.5 13z" />
<glyph unicode="&#xad;" d="M700 707q0 -11 -8 -19t-18 -8h-551v149q0 11 8.5 19t18.5 8h550v-149z" />
<glyph unicode="&#x104;" horiz-adv-x="1527" d="M1446 -279q17 0 28 -11.5t11 -26.5v-84h-205q-50 0 -84.5 34.5t-34.5 83.5v109l195 174h-31q-27 0 -37 27l-137 395h-782l-138 -395q-7 -27 -36 -27h-168l501 1423q17 52 61.5 83.5t100.5 31.5h244q15 0 22 -14l537 -1524l-205 -211v-51q0 -7 5.5 -12t13.5 -5h139z M430 598h660l-267 764h-98q-29 0 -39 -27z" />
<glyph unicode="&#x105;" horiz-adv-x="1048" d="M928 0l-203 -190v-62q0 -16 16 -16h148q17 0 28 -11.5t11 -27.5v-76h-203q-49 0 -84 34.5t-35 84.5v102l191 162h-414q-125 0 -212 87t-87 212v63q0 125 87.5 212.5t211.5 87.5h346q9 0 16 6.5t7 15.5v51q0 50 -36 85.5t-87 35.5h-434q-9 0 -16 7t-7 16v145h457 q125 0 212 -87t87 -212v-725zM752 197v325q-18 -27 -56 -30h-313q-51 0 -86 -35t-35 -86v-76q0 -51 35 -86t86 -35h346q9 0 16 7t7 16z" />
<glyph unicode="&#x106;" horiz-adv-x="1247" d="M471 1362q-65 0 -110.5 -46t-45.5 -110v-874q0 -64 45.5 -110t110.5 -46h649q11 0 19 -8t8 -18v-150h-676q-145 0 -246.5 101.5t-101.5 246.5v842q0 145 101.5 246.5t246.5 101.5h676v-149q0 -11 -8.5 -19t-18.5 -8h-649zM793 1698q-11 -23 -35 -23h-146l86 207 q4 10 15 17.5t22 7.5h146z" />
<glyph unicode="&#x107;" horiz-adv-x="899" d="M406 854q-51 0 -86 -36t-35 -87v-440q0 -51 35 -86t86 -35h362q9 0 16 -7t7 -16v-147h-385q-125 0 -212.5 87.5t-87.5 211.5v424q0 124 87.5 211.5t212.5 87.5h385v-148q0 -9 -7 -14.5t-16 -5.5h-362zM588 1227q-3 -7 -15.5 -14t-21.5 -7h-139l106 209q1 9 13.5 16 t23.5 7h139z" />
<glyph unicode="&#x110;" horiz-adv-x="1427" d="M944 1538q145 0 247.5 -101.5t102.5 -246.5v-842q0 -145 -102.5 -246.5t-247.5 -101.5h-657q-49 0 -84 35t-35 84v573h-135v127q0 11 8 19t18 8h109v573q0 49 35 84t84 35h657zM1102 332v874q0 64 -46.5 110t-111.5 46h-545q-16 0 -27.5 -11t-11.5 -28v-477h383v-127 q0 -11 -7 -19t-19 -8h-357v-477q0 -17 11.5 -28t27.5 -11h545q65 0 111.5 46t46.5 110z" />
<glyph unicode="&#x111;" horiz-adv-x="1122" d="M125 725q0 125 85.5 212t209.5 87h237q47 0 84.5 -19t57.5 -47v269h-234v110q0 11 8.5 19t18.5 8h207v149q0 9 6.5 16t15.5 7h156v-172h145v-111q0 -11 -8 -18.5t-18 -7.5h-119v-1161q0 -28 -19 -47t-47 -19h-487q-124 0 -211.5 87t-87.5 212v426zM303 733v-442 q0 -51 35 -86t86 -35h352q9 0 16 5.5t7 14.5v560q-3 41 -31.5 70t-67.5 34h-276q-51 0 -86 -35t-35 -86z" />
<glyph unicode="&#x118;" horiz-adv-x="1228" d="M471 1362q-65 0 -110.5 -46t-45.5 -110v-389q33 41 101 41h674v-149q0 -11 -8 -19t-19 -8h-748v-350q0 -64 45.5 -110t110.5 -46h666q11 0 18.5 -8t7.5 -18v-150h-121l-202 -211v-51q0 -17 16 -17h139q17 0 28 -11.5t11 -26.5v-84h-203q-49 0 -83.5 34.5t-34.5 83.5v109 l192 174h-434q-145 0 -246.5 101.5t-101.5 246.5v842q0 145 101.5 246.5t246.5 101.5h692v-149q0 -11 -8 -19t-18 -8h-666z" />
<glyph unicode="&#x119;" horiz-adv-x="1105" d="M422 0q-124 0 -211.5 87t-87.5 212v434q0 138 84.5 214.5t214.5 76.5h274q130 0 214.5 -76.5t84.5 -214.5v-235q0 -21 -2.5 -33t-15 -21.5t-35.5 -9.5h-561q-52 0 -80 39v-182q0 -51 35 -86t86 -35h508q9 0 15.5 -7t6.5 -16v-147h-78l-151 -137v-62q0 -6 5 -11t11 -5h150 q15 0 27 -12t12 -27v-76h-205q-49 0 -84 35t-35 84v102l137 109h-319zM702 856h-280q-54 0 -87.5 -31t-33.5 -90v-110q0 -19 21 -23h477q9 0 15.5 7t6.5 16v110q0 121 -119 121z" />
<glyph unicode="&#x131;" horiz-adv-x="442" d="M285 1024q9 0 15.5 -5.5t6.5 -14.5v-1004h-155q-9 0 -16 7t-7 16v1001h156z" />
<glyph unicode="&#x141;" horiz-adv-x="1239" d="M1161 176q11 0 19 -8t8 -18v-150h-666q-146 0 -249 103t-103 249v348l-170 -127v148q0 10 7 22.5t16 18.5l147 112v637q0 11 8 19t19 8h168v-524l245 176v-148q0 -11 -6.5 -24t-15.5 -19l-223 -159v-504q0 -66 45.5 -113t111.5 -47h639z" />
<glyph unicode="&#x142;" horiz-adv-x="466" d="M317 932l162 115v-158q0 -27 -20 -43l-142 -98v-748h-155q-9 0 -16 7t-7 16v600l-147 -103v156q0 26 22 41l125 88v731h156q9 0 15.5 -7t6.5 -16v-581z" />
<glyph unicode="&#x143;" horiz-adv-x="1447" d="M1157 1538h166v-1536h-180q-24 0 -39 23l-698 1304q-7 13 -24 23t-32 10h-35v-1333q0 -12 -7.5 -19.5t-18.5 -7.5h-166v1509q0 11 8.5 19t18.5 8h233q49 0 100 -30.5t74 -73.5l573 -1080v1157q0 11 8 19t19 8zM948 1880l-129 -219q-11 -25 -35 -25h-147l139 222 q4 9 15 15.5t20 6.5h137z" />
<glyph unicode="&#x144;" horiz-adv-x="1122" d="M694 1024q123 0 211 -87.5t88 -211.5v-725h-155q-9 0 -16 7t-7 16v712q0 50 -35 85.5t-86 35.5h-393v-833q0 -9 -6.5 -16t-15.5 -7h-156v891q0 55 38.5 94t94.5 39h438zM625 1243q-11 -22 -35 -22h-133l100 235q11 23 35 23h133z" />
<glyph unicode="&#x152;" horiz-adv-x="2123" d="M1370 1362q-64 0 -110 -46t-46 -110v-389q33 41 101 41h637v-149q0 -11 -8 -19t-19 -8h-711v-350q0 -64 46 -110t110 -46h627q11 0 18.5 -8t7.5 -18v-150h-653q-144 0 -242 106q-107 -114 -241 -114h-418q-144 0 -246 102.5t-102 245.5v858q0 143 102 245.5t246 102.5 h418q134 0 241 -114q101 106 242 106h653v-149q0 -11 -8 -19t-18 -8h-627zM1042 324v890q0 65 -45.5 110.5t-109.5 45.5h-418q-65 0 -110.5 -46t-45.5 -110v-890q0 -64 45.5 -110t110.5 -46h418q64 0 109.5 45.5t45.5 110.5z" />
<glyph unicode="&#x153;" horiz-adv-x="1730" d="M1542 172q9 0 16 -6.5t7 -15.5v-148h-508q-104 0 -195 88q-85 -88 -200 -88h-236q-120 0 -205.5 85.5t-85.5 205.5v442q0 120 85.5 205.5t205.5 85.5h236q114 0 202 -88q88 88 193 88h246q125 0 212 -87t87 -212v-227q0 -27 -19.5 -46.5t-46.5 -19.5h-600v-141 q0 -51 35.5 -86t85.5 -35h485zM1057 856q-50 0 -85.5 -35t-35.5 -86v-131h467q9 0 14.5 7t5.5 16v108q0 51 -34.5 86t-85.5 35h-246zM778 285v458q0 49 -34 83t-82 34h-236q-50 0 -84.5 -34t-34.5 -83v-458q0 -48 35 -82.5t84 -34.5h236q47 0 81.5 35t34.5 82z" />
<glyph unicode="&#x15a;" horiz-adv-x="1341" d="M1133 711q47 -15 79.5 -60.5t32.5 -95.5v-205q0 -145 -101.5 -246.5t-246.5 -101.5h-811v148q0 12 8 20t19 8h784q65 0 110.5 46t45.5 110v184q0 15 -10.5 29.5t-24.5 19.5l-791 262q-46 15 -79 61t-33 95v205q0 143 102 245.5t246 102.5h741v-149q0 -11 -8 -19t-18 -8 h-715q-65 0 -110.5 -46t-45.5 -110v-184q0 -17 11 -31.5t26 -19.5zM809 1702q-4 -10 -15 -17.5t-20 -7.5h-145l86 209q11 23 35 23h145z" />
<glyph unicode="&#x15b;" horiz-adv-x="1095" d="M616 1231q-12 -23 -34 -23h-133l100 236q11 22 35 22h133zM152 549l643 -158q18 -4 18 -20v-97q0 -49 -37 -77.5t-90 -28.5h-557q-9 0 -16 -7t-7 -16v-145h580q129 0 211 72t82 202v183q0 25 -15 44t-40 23l-633 150q-19 8 -19 22v60q0 100 103 100h538q9 0 16 7t7 16 v145h-561q-126 0 -203.5 -73.5t-77.5 -196.5v-138q0 -25 16.5 -43.5t41.5 -23.5z" />
<glyph unicode="&#x160;" horiz-adv-x="1302" d="M113 176q-11 0 -19 -7t-8 -19v-150h784q143 0 239.5 95t96.5 239v219q0 50 -30.5 96.5t-75.5 61.5l-787 260q-15 5 -26 19.5t-11 31.5v199q0 63 46 102t112 39h703q12 0 19 8t7 19v149h-729q-149 0 -248.5 -84t-99.5 -225v-244q0 -49 33.5 -95t79.5 -61l786 -262 q15 -4 26 -19t11 -30v-186q0 -65 -44 -110.5t-108 -45.5h-757zM596 1675q-26 0 -47 29l-207 199h154h5h6t6 -0.5t7 -1.5t7 -3t9 -5t9 -7t10.5 -9.5t11.5 -12.5l97 -88l94 92q8 8 15 14.5t13.5 10.5t11 6t10.5 3t8.5 1h8h6.5h154l-209 -199q-6 -11 -19.5 -20t-25.5 -9h-135z " />
<glyph unicode="&#x161;" horiz-adv-x="1105" d="M152 549l643 -158q18 -4 18 -20v-97q0 -49 -37 -77.5t-90 -28.5h-557q-9 0 -16 -7t-7 -16v-145h580q129 0 211 72t82 202v183q0 25 -15 44t-40 23l-633 150q-19 8 -19 22v60q0 100 103 100h538q9 0 16 7t7 16v145h-561q-126 0 -203.5 -73.5t-77.5 -196.5v-138 q0 -25 16.5 -43.5t41.5 -23.5zM498 1253q-22 0 -43 25l-189 180h140h5.5h5.5t5.5 -0.5t6.5 -1.5t6.5 -2.5t8 -4t8.5 -6t10 -9t11 -11.5l86 -82l88 84q8 9 16 16t13 10t12 5t9 2h9h7h141l-190 -180q-17 -25 -43 -25h-123z" />
<glyph unicode="&#x178;" horiz-adv-x="1394" d="M1171 1538h181l-314 -797q-19 -51 -57 -83.5t-94 -32.5h-92v-598q0 -11 -8.5 -19t-18.5 -8h-168v625l-82 2q-62 0 -102.5 32t-59.5 82l-313 797h180q10 0 21 -8t16 -17l256 -669q6 -15 22 -26t31 -11h256q15 0 31.5 11t22.5 26l256 669q13 25 36 25zM578 1669h-158 q-12 0 -20.5 9t-8.5 20v160h158q12 0 20.5 -9.5t8.5 -21.5v-158zM995 1669h-157q-12 0 -20.5 9t-8.5 20v160h158q12 0 20 -9.5t8 -21.5v-158z" />
<glyph unicode="&#x179;" horiz-adv-x="1398" d="M1309 1389q0 -44 -27 -74l-960 -1139h987v-149q0 -11 -7.5 -19t-19.5 -8h-1178q-10 0 -18 8t-8 19v102q0 41 26 74l981 1159h-944v149q0 11 8.5 19t18.5 8h1114q12 0 19.5 -8t7.5 -19v-122zM791 1712q-3 -12 -15 -20.5t-24 -8.5h-146l103 250q3 10 15 18.5t24 8.5h167z " />
<glyph unicode="&#x17a;" horiz-adv-x="954" d="M891 170v-147q0 -9 -7 -16t-16 -7h-784q-9 0 -16 7t-7 16v79q0 58 37 101l547 628q4 4 4 9q0 6 -4 11t-10 5h-574v145q0 9 7 16t16 7h760q9 0 15.5 -7t6.5 -16v-112q0 -58 -37 -101l-518 -593q-11 -11 0 -21q4 -4 8 -4h572zM543 1237q-11 -23 -35 -23h-133l100 236 q11 23 35 23h154z" />
<glyph unicode="&#x17b;" horiz-adv-x="1396" d="M1309 1389q0 -44 -27 -74l-960 -1139h987v-149q0 -11 -7.5 -19t-19.5 -8h-1178q-10 0 -18 8t-8 19v102q0 41 26 74l981 1159h-944v149q0 11 8.5 19t18.5 8h1114q12 0 19.5 -8t7.5 -19v-122zM678 1696q-17 0 -29 13t-12 30v157h158q18 0 30.5 -12.5t12.5 -30.5v-157h-160z " />
<glyph unicode="&#x17c;" horiz-adv-x="954" d="M891 170v-147q0 -9 -7 -16t-16 -7h-784q-9 0 -16 7t-7 16v79q0 58 37 101l547 628q4 4 4 9q0 6 -4 11t-10 5h-574v145q0 9 7 16t16 7h760q9 0 15.5 -7t6.5 -16v-112q0 -58 -37 -101l-518 -593q-11 -11 0 -21q4 -4 8 -4h572zM430 1247q-17 0 -28 11t-11 26v143h144 q15 0 26.5 -10.5t11.5 -25.5v-144h-143z" />
<glyph unicode="&#x17d;" horiz-adv-x="1398" d="M1092 1362l-988 -1159q-26 -33 -26 -74v-102q0 -11 8 -19t18 -8h1180q10 0 18.5 8t8.5 19v149h-1000l971 1139q29 29 29 74v122q0 11 -8.5 19t-18.5 8h-1116q-10 0 -18.5 -8t-8.5 -19v-149h951zM682 1679q-24 0 -47 27l-201 192h150h6h8.5t8 -1t10 -3.5t10 -6.5t13 -10 t13.5 -15l95 -86l92 88q9 10 17 17t13.5 10.5t12 5t9.5 2t9.5 0t7.5 -0.5h150l-201 -192q-22 -27 -45 -27h-131z" />
<glyph unicode="&#x17e;" horiz-adv-x="944" d="M881 166v-143q0 -9 -7 -16t-16 -7h-774q-9 0 -16 7t-7 16v79q0 58 37 101l555 633q4 4 4 10q0 14 -14 14h-528v144q0 9 6.5 14.5t15.5 5.5h707q9 0 15.5 -5.5t6.5 -14.5v-115q0 -58 -37 -101l-526 -598q-10 -10 0 -20q2 -4 8 -4h570zM449 1237q-24 0 -41 25l-183 182h135 h5h6t6.5 -1t7.5 -2t7.5 -3.5t9.5 -6.5t10 -9.5t12 -12.5l84 -82l84 84q8 9 15.5 16t12 10t11.5 5t8.5 2h8.5h7h136l-183 -182q-17 -25 -41 -25h-118z" />
<glyph unicode="&#x2000;" horiz-adv-x="980" />
<glyph unicode="&#x2001;" horiz-adv-x="1960" />
<glyph unicode="&#x2002;" horiz-adv-x="980" />
<glyph unicode="&#x2003;" horiz-adv-x="1960" />
<glyph unicode="&#x2004;" horiz-adv-x="653" />
<glyph unicode="&#x2005;" horiz-adv-x="490" />
<glyph unicode="&#x2006;" horiz-adv-x="326" />
<glyph unicode="&#x2007;" horiz-adv-x="326" />
<glyph unicode="&#x2008;" horiz-adv-x="245" />
<glyph unicode="&#x2009;" horiz-adv-x="392" />
<glyph unicode="&#x200a;" horiz-adv-x="108" />
<glyph unicode="&#x2010;" d="M700 707q0 -11 -8 -19t-18 -8h-551v149q0 11 8.5 19t18.5 8h550v-149z" />
<glyph unicode="&#x2011;" d="M700 707q0 -11 -8 -19t-18 -8h-551v149q0 11 8.5 19t18.5 8h550v-149z" />
<glyph unicode="&#x2012;" d="M700 707q0 -11 -8 -19t-18 -8h-551v149q0 11 8.5 19t18.5 8h550v-149z" />
<glyph unicode="&#x2013;" horiz-adv-x="925" d="M821 707q0 -11 -8 -19t-18 -8h-672v143q0 11 8.5 19t18.5 8h671v-143z" />
<glyph unicode="&#x2014;" horiz-adv-x="1087" d="M969 707q0 -11 -8.5 -19t-18.5 -8h-819v143q0 11 8.5 19t18.5 8h819v-143z" />
<glyph unicode="&#x2018;" horiz-adv-x="374" d="M264 1536q12 0 20.5 -8.5t8.5 -20.5v-200l-170 -97v326h141z" />
<glyph unicode="&#x2019;" horiz-adv-x="366" d="M150 1208q-12 0 -20.5 8.5t-8.5 20.5v201l170 96v-326h-141z" />
<glyph unicode="&#x201a;" horiz-adv-x="425" d="M274 193q12 0 20.5 -9.5t8.5 -21.5v-254l-180 -107v375v17h151z" />
<glyph unicode="&#x201c;" horiz-adv-x="681" d="M551 1532q12 0 20.5 -8.5t8.5 -20.5v-200l-170 -97v326h141zM260 1532q12 0 20.5 -8.5t8.5 -20.5v-200l-170 -97v326h141z" />
<glyph unicode="&#x201d;" horiz-adv-x="708" d="M150 1208q-12 0 -20.5 8.5t-8.5 20.5v201l170 96v-326h-141zM440 1208q-12 0 -20 8.5t-8 20.5v201l170 96v-326h-142z" />
<glyph unicode="&#x201e;" horiz-adv-x="735" d="M274 193q12 0 20.5 -9.5t8.5 -21.5v-254l-180 -107v375v17h151zM586 193q12 0 20 -9.5t8 -21.5v-254l-180 -107v375v17h152z" />
<glyph unicode="&#x2022;" horiz-adv-x="542" d="M424 610h-242q-18 0 -30.5 12.5t-12.5 30.5v244h242q20 0 31.5 -13t11.5 -32v-242z" />
<glyph unicode="&#x2026;" horiz-adv-x="1333" d="M152 0q-12 0 -20.5 9t-8.5 20v164h162q12 0 20 -9.5t8 -21.5v-162h-161zM596 0q-12 0 -20.5 9t-8.5 20v164h162q12 0 20.5 -9.5t8.5 -21.5v-162h-162zM1040 0q-12 0 -20 9t-8 20v164h162q12 0 20 -9.5t8 -21.5v-162h-162z" />
<glyph unicode="&#x202f;" horiz-adv-x="392" />
<glyph unicode="&#x2044;" horiz-adv-x="454" d="M543 1538h170l-766 -1513q-5 -9 -17 -17t-22 -8h-170l766 1513q5 10 16.5 17.5t22.5 7.5z" />
<glyph unicode="&#x205f;" horiz-adv-x="490" />
<glyph unicode="&#x25fc;" horiz-adv-x="1024" d="M0 1024h1024v-1024h-1024v1024z" />
</font>
</defs>
</svg>
